<?xml version="1.0" standalone="no"?>
<!DOCTYPE svg PUBLIC "-//W3C//DTD SVG 20010904//EN"
 "http://www.w3.org/TR/2001/REC-SVG-20010904/DTD/svg10.dtd">
<svg version="1.0" xmlns="http://www.w3.org/2000/svg"
 width="512.000000pt" height="512.000000pt" viewBox="0 0 512.000000 512.000000"
 preserveAspectRatio="xMidYMid meet">
<metadata>
Created by potrace 1.14, written by Peter Selinger 2001-2017
</metadata>
<g transform="translate(0.000000,512.000000) scale(0.100000,-0.100000)"
fill="#000000" stroke="none">
<path d="M2378 5116 c-1 -2 -39 -6 -82 -10 -44 -4 -82 -9 -85 -11 -4 -2 -34
-7 -66 -10 -109 -13 -388 -87 -490 -130 -16 -7 -49 -20 -73 -29 -23 -9 -82
-35 -130 -58 -531 -257 -953 -682 -1209 -1219 -87 -183 -173 -447 -197 -613
-4 -21 -8 -41 -10 -45 -4 -6 -12 -68 -26 -201 -8 -81 -5 -463 5 -520 3 -19 13
-78 21 -130 56 -345 187 -683 380 -976 260 -395 592 -690 1014 -900 241 -119
549 -214 780 -239 36 -4 86 -10 112 -15 49 -7 472 -5 518 4 14 2 45 7 70 10
36 5 171 31 271 51 41 8 174 51 274 87 386 141 784 419 1044 728 25 30 49 57
52 60 20 16 160 221 213 310 172 292 302 667 333 960 2 25 6 56 9 70 8 36 11
426 5 485 l-6 50 -14 -80 c-19 -112 -28 -160 -31 -160 -2 0 -4 -7 -19 -70 -16
-63 -76 -222 -119 -315 -176 -378 -486 -710 -859 -918 -51 -29 -95 -52 -97
-52 -2 0 -37 -15 -78 -34 -122 -56 -356 -127 -465 -141 -21 -2 -69 -9 -108
-15 -126 -19 -375 -17 -535 5 -251 33 -552 143 -779 284 -139 86 -293 209
-390 311 -162 171 -272 326 -369 518 -89 177 -179 457 -197 615 -3 26 -8 68
-11 95 -7 53 -7 333 0 402 20 203 85 450 162 618 19 41 34 75 34 78 0 10 107
194 148 254 232 342 595 629 962 762 30 10 64 24 75 29 11 5 64 20 118 35 108
28 101 27 205 44 40 7 71 15 68 18 -6 5 -421 13 -428 8z"/>
<path d="M4596 5024 c-7 -55 -52 -156 -93 -211 -77 -102 -194 -173 -327 -199
-29 -5 -32 -14 -4 -14 37 0 128 -32 184 -65 109 -63 218 -213 239 -327 9 -49
21 -48 28 2 8 64 62 164 123 230 80 85 182 143 279 157 22 3 41 7 43 8 2 2
-22 8 -52 15 -88 18 -188 73 -254 140 -69 70 -108 138 -138 239 l-21 74 -7
-49z"/>
<path d="M2807 4520 c-4 -33 -22 -87 -47 -136 -70 -142 -201 -243 -360 -278
-52 -11 -58 -14 -30 -15 44 -2 110 -24 175 -58 130 -70 230 -202 259 -345 l13
-62 11 59 c14 70 59 168 97 210 15 17 32 37 39 45 49 65 214 148 301 151 20 1
8 6 -35 15 -199 43 -363 208 -403 406 l-13 63 -7 -55z"/>
<path d="M2036 2966 c-19 -122 -141 -283 -261 -343 -71 -36 -154 -62 -175 -55
-8 3 -12 2 -9 -2 3 -3 31 -13 63 -21 148 -39 278 -144 342 -278 19 -42 39 -97
43 -124 l7 -48 17 69 c38 148 112 246 248 327 36 22 91 45 122 51 32 7 57 15
57 19 0 3 -19 9 -42 13 -69 11 -179 72 -242 134 -79 78 -142 194 -148 275 -3
41 -15 33 -22 -17z"/>
<path d="M3573 2457 c-36 -170 -170 -321 -343 -384 -19 -7 -47 -14 -62 -15
-29 -2 -40 -18 -13 -18 32 0 140 -42 190 -75 110 -70 189 -179 221 -304 l19
-72 17 68 c45 183 203 340 379 376 l64 13 -55 13 c-128 31 -252 117 -321 224
-36 55 -74 153 -81 207 -2 17 -7 6 -15 -33z"/>
</g>
</svg>
